<svg version="1.1" id="Shopping_Cart" xmlns="http://www.w3.org/2000/svg" xmlns:xlink="http://www.w3.org/1999/xlink" x="0px" y="0px" viewBox="0 0 512 512" style="enable-background:new 0 0 512 512;" xml:space="preserve">
<style type="text/css">
	.st0{fill:#F7931E;}
</style>
<path class="st0" d="M142.75,171.43l54.23,145.68c4.98,13.38,17.75,22.25,32.03,22.25h223.21c20.74,0,37.55-16.81,37.55-37.55
	V162.92c0-14.96-12.12-27.08-27.08-27.08H127.98L142.75,171.43z" id="id_101" style="fill: rgb(32, 177, 230);"></path>
<g>
<path d="M457.2,347.36H234.32c-18.94,0-35.64-11.39-42.56-29.02l-83.68-213.39c-6.95-17.73-23.75-29.18-42.78-29.18H22.22
		c-4.42,0-8-3.58-8-8s3.58-8,8-8H65.3c25.67,0,48.31,15.44,57.68,39.34l83.68,213.39c4.49,11.46,15.35,18.86,27.66,18.86H457.2
		c13.55,0,24.58-11.03,24.58-24.58V163.36c0-10.12-8.23-18.35-18.35-18.35H256c-4.42,0-8-3.58-8-8s3.58-8,8-8h207.42
		c18.94,0,34.35,15.41,34.35,34.35v143.43C497.78,329.16,479.57,347.36,457.2,347.36z" id="id_102" style="fill: rgb(4, 4, 5);"></path>
</g>
<g>
<g>
<path d="M266.55,452.22c-27.74,0-50.31-22.57-50.31-50.31c0-27.74,22.57-50.31,50.31-50.31c27.74,0,50.31,22.57,50.31,50.31
			C316.86,429.66,294.29,452.22,266.55,452.22z M266.55,367.61c-18.92,0-34.31,15.39-34.31,34.31c0,18.92,15.39,34.31,34.31,34.31
			c18.92,0,34.31-15.39,34.31-34.31C300.86,383,285.47,367.61,266.55,367.61z" id="id_103"></path>
</g>
<g>
<path d="M425.69,452.22c-27.74,0-50.31-22.57-50.31-50.31c0-27.74,22.57-50.31,50.31-50.31s50.31,22.57,50.31,50.31
			C475.99,429.66,453.43,452.22,425.69,452.22z M425.69,367.61c-18.92,0-34.31,15.39-34.31,34.31c0,18.92,15.39,34.31,34.31,34.31
			s34.31-15.39,34.31-34.31C459.99,383,444.6,367.61,425.69,367.61z" id="id_104"></path>
</g>
</g>
<g>
<g>
<path d="M489.78,205.76H340.59c-4.42,0-8-3.58-8-8s3.58-8,8-8h149.19c4.42,0,8,3.58,8,8S494.2,205.76,489.78,205.76z" id="id_105"></path>
</g>
<g>
<path d="M489.78,283.32H235.53c-4.42,0-8-3.58-8-8s3.58-8,8-8h254.25c4.42,0,8,3.58,8,8S494.2,283.32,489.78,283.32z" id="id_106"></path>
</g>
</g>
</svg>