<svg width="25" height="25" viewBox="0 0 32 32" fill="current" xmlns="http://www.w3.org/2000/svg">
<path d="M14.6397 2.12628C15.008 0.939313 16.6119 0.939311 16.9802 2.12628L19.6777 10.8184C19.8424 11.3492 20.3149 11.7086 20.8479 11.7086H29.5771C30.7691 11.7086 31.2647 13.3056 30.3003 14.0392L23.2383 19.4112C22.8071 19.7393 22.6266 20.3208 22.7913 20.8517L25.4888 29.5437C25.8571 30.7307 24.5596 31.7177 23.5952 30.9842L16.5332 25.6122C16.1019 25.2841 15.5179 25.2841 15.0867 25.6122L8.02466 30.9842C7.06029 31.7177 5.76274 30.7307 6.1311 29.5437L8.82854 20.8517C8.99328 20.3208 8.81281 19.7393 8.38153 19.4112L1.31953 14.0392C0.355163 13.3056 0.850781 11.7086 2.0428 11.7086H10.7719C11.305 11.7086 11.7775 11.3492 11.9422 10.8184L14.6397 2.12628Z" stroke="current"/>
</svg>
